HIERARCHY
ROOT SpineBase
{
  OFFSET 0.000000 0.000000 0.000000
  CHANNELS 6 Xposition Yposition Zposition Zrotation Xrotation Yrotation
  JOINT SpineMid
  {
    OFFSET -0.000000 25.439116 0.000000
    CHANNELS 3 Zrotation Xrotation Yrotation
    JOINT SpineShoulder
    {
      OFFSET -0.115972 18.631368 -0.180391
      CHANNELS 3 Zrotation Xrotation Yrotation
      JOINT Neck
      {
        OFFSET 0.002443 6.527674 -0.346110
        CHANNELS 3 Zrotation Xrotation Yrotation
        JOINT Head
        {
          OFFSET 6.155943 11.778410 -0.932487
          CHANNELS 3 Zrotation Xrotation Yrotation
          End Site
          {
            OFFSET 0 0 0
          }
        }
      }
      JOINT ShoulderLeft
      {
        OFFSET -8.606698 -4.860395 -6.703703
        CHANNELS 3 Zrotation Xrotation Yrotation
        JOINT ElbowLeft
        {
          OFFSET -4.657778 -22.899874 -4.512471
          CHANNELS 3 Zrotation Xrotation Yrotation
          JOINT WristLeft
          {
            OFFSET 5.188255 -19.981246 -2.175366
            CHANNELS 3 Zrotation Xrotation Yrotation
            JOINT HandLeft
            {
              OFFSET 2.138344 -7.009625 0.948984
              CHANNELS 3 Zrotation Xrotation Yrotation
              JOINT HandTipLeft
              {
                OFFSET 2.322388 -6.492277 -2.493578
                CHANNELS 3 Zrotation Xrotation Yrotation
                End Site
                {
                  OFFSET 0 0 0
                }
              }
              JOINT ThumbLeft
              {
                OFFSET 2.637963 3.194715 -0.045471
                CHANNELS 3 Zrotation Xrotation Yrotation
                End Site
                {
                  OFFSET 0 0 0
                }
              }
            }
          }
        }
      }
      JOINT ShoulderRight
      {
        OFFSET 7.844712 1.711680 5.160691
        CHANNELS 3 Zrotation Xrotation Yrotation
        JOINT ElbowRight
        {
          OFFSET 0.012705 -25.280883 -6.235836
          CHANNELS 3 Zrotation Xrotation Yrotation
          JOINT WristRight
          {
            OFFSET -7.574671 -19.216652 -0.470564
            CHANNELS 3 Zrotation Xrotation Yrotation
            JOINT HandRight
            {
              OFFSET -1.968288 -4.216150 -9.917947
              CHANNELS 3 Zrotation Xrotation Yrotation
              JOINT HandTipRight
              {
                OFFSET -1.029911 -3.614439 -0.621411
                CHANNELS 3 Zrotation Xrotation Yrotation
                End Site
                {
                  OFFSET 0 0 0
                }
              }
              JOINT ThumbRight
              {
                OFFSET -2.621460 3.510582 -1.354393
                CHANNELS 3 Zrotation Xrotation Yrotation
                End Site
                {
                  OFFSET 0 0 0
                }
              }
            }
          }
        }
      }
    }
  }
  JOINT HipLeft
  {
    OFFSET -4.946782 1.034022 -4.793779
    CHANNELS 3 Zrotation Xrotation Yrotation
    JOINT KneeLeft
    {
      OFFSET 2.242199 -34.707498 2.570684
      CHANNELS 3 Zrotation Xrotation Yrotation
      JOINT AnkleLeft
      {
        OFFSET -2.199680 -34.491334 11.918149
        CHANNELS 3 Zrotation Xrotation Yrotation
        JOINT FootLeft
        {
          OFFSET 3.264776 -7.125055 0.360038
          CHANNELS 3 Zrotation Xrotation Yrotation
          End Site
          {
            OFFSET 0 0 0
          }
        }
      }
    }
  }
  JOINT HipRight
  {
    OFFSET 4.391118 0.614839 -1.264746
    CHANNELS 3 Zrotation Xrotation Yrotation
    JOINT KneeRight
    {
      OFFSET 3.386690 -36.518553 11.469217
      CHANNELS 3 Zrotation Xrotation Yrotation
      JOINT AnkleRight
      {
        OFFSET -1.814330 -26.461431 8.124086
        CHANNELS 3 Zrotation Xrotation Yrotation
        JOINT FootRight
        {
          OFFSET 4.893352 -3.704963 -8.980101
          CHANNELS 3 Zrotation Xrotation Yrotation
          End Site
          {
            OFFSET 0 0 0
          }
        }
      }
    }
  }
}
MOTION
Frames: 14
Frame Time: 0.033333
27.465183 86.201382 324.916923 0.000000 0.000000 -20.702872 -0.000000 0.000000 20.702872 -0.000000 0.000000 0.000000 -0.000000 0.000000 0.000000 0.000000 0.000000 0.000000 -0.000000 0.000000 0.000000 -0.000000 0.000000 0.000000 -0.000000 0.000000 0.000000 -0.000000 0.000000 0.000000 0.000000 0.000000 0.000000 0.000000 0.000000 0.000000 -0.000000 0.000000 0.000000 -0.000000 0.000000 0.000000 -0.000000 0.000000 0.000000 -0.000000 0.000000 0.000000 0.000000 0.000000 0.000000 0.000000 0.000000 0.000000 -0.000000 0.000000 20.702872 -0.000000 0.000000 0.000000 -0.000000 0.000000 0.000000 0.000000 0.000000 0.000000 -0.000000 0.000000 20.702872 -0.000000 0.000000 0.000000 -0.000000 0.000000 0.000000 0.000000 0.000000 0.000000
27.008294 86.081263 325.054488 -0.361108 0.467514 -22.767753 0.513903 -0.291327 22.770532 -0.000000 0.000000 0.000000 1.321947 -0.609530 0.432691 0.000000 0.000000 0.000000 -0.672153 -0.993954 0.328962 -2.229862 -0.363833 -0.365205 2.899513 1.371875 0.005728 -3.440300 -2.286625 0.443167 0.000000 0.000000 0.000000 0.000000 0.000000 0.000000 -0.000000 0.000000 0.000000 -0.000000 0.000000 0.000000 -1.104054 -3.062948 4.243963 0.359522 8.112964 -5.410989 0.000000 0.000000 0.000000 0.000000 0.000000 0.000000 0.513903 -0.291327 22.770532 -0.000000 0.000000 0.000000 4.307826 9.021179 3.965808 0.000000 0.000000 0.000000 0.513903 -0.291327 22.770532 -0.000000 0.000000 0.000000 -0.545841 -1.224023 -0.309466 0.000000 0.000000 0.000000
26.606173 86.030857 325.106860 -0.672547 0.933280 -24.093184 0.386946 -1.289038 24.083086 0.845501 0.401562 0.007723 2.496739 -1.099488 0.804860 0.000000 0.000000 0.000000 -1.237095 -1.848797 0.600479 -4.062955 -0.510689 -0.626681 5.839452 3.945276 0.450988 -7.149781 -5.698349 0.057688 0.000000 0.000000 0.000000 0.000000 0.000000 0.000000 -0.000000 0.000000 0.000000 -0.000000 0.000000 0.000000 -1.736967 -6.667984 8.148555 2.245072 18.660839 -11.317022 0.000000 0.000000 0.000000 0.000000 0.000000 0.000000 2.223638 -0.790777 24.149905 -1.106054 1.649050 -0.109820 7.403990 16.143873 7.200101 0.000000 0.000000 0.000000 1.250087 0.301585 24.355263 0.329125 -0.821866 0.049940 -1.848525 -1.970012 -0.900321 0.000000 0.000000 0.000000
26.258820 86.050163 325.074037 -0.933151 1.397019 -24.764164 0.548111 -1.757903 24.752153 1.171831 0.429067 0.009629 3.525612 -1.475192 1.112383 0.000000 0.000000 0.000000 -1.697793 -2.564156 0.819339 -5.473697 -0.445613 -0.785104 8.289446 5.678973 0.687185 -10.510229 -8.157910 -0.314233 0.000000 0.000000 0.000000 0.000000 0.000000 0.000000 -0.000000 0.000000 0.000000 -0.000000 0.000000 0.000000 -1.840071 -10.914140 11.792821 7.408971 31.771496 -19.261860 0.000000 0.000000 0.000000 0.000000 0.000000 0.000000 3.096276 -1.213741 24.853411 -1.419389 2.300778 -0.124008 9.223294 22.280118 9.539146 0.000000 0.000000 0.000000 1.859202 0.217357 25.130870 0.508919 -1.043265 0.107551 -2.462800 -2.354429 -1.315657 0.000000 0.000000 0.000000
25.966236 86.139182 324.956020 -1.141770 1.858472 -24.822969 0.654327 -2.123966 24.810755 1.439698 0.344292 0.011757 4.410276 -1.741403 1.352121 0.000000 0.000000 0.000000 -2.056678 -3.140033 0.989481 -6.451042 -0.175415 -0.844807 10.411890 7.251948 0.962078 -13.651063 -10.261956 -0.904848 0.000000 0.000000 0.000000 0.000000 0.000000 0.000000 -0.000000 0.000000 0.000000 -0.000000 0.000000 0.000000 -1.306426 -15.958843 15.286635 19.996983 45.858486 -33.256126 0.000000 0.000000 0.000000 0.000000 0.000000 0.000000 3.790988 -1.702920 24.945128 -1.572897 2.832495 -0.113718 9.965311 26.747149 11.243283 0.000000 0.000000 0.000000 2.464405 -0.050036 25.277644 0.699104 -1.138407 0.183764 -2.846447 -2.309148 -1.691952 0.000000 0.000000 0.000000
25.728419 86.297913 324.752809 -1.297267 2.317394 -24.273105 0.689749 -2.391782 24.261763 1.651961 0.146896 0.014791 5.152659 -1.902125 1.521731 0.000000 0.000000 0.000000 -2.315604 -3.576554 1.113989 -6.992348 0.294263 -0.813108 12.202474 8.671029 1.294507 -16.523114 -11.970302 -1.669762 0.000000 0.000000 0.000000 0.000000 0.000000 0.000000 -0.000000 0.000000 0.000000 -0.000000 0.000000 0.000000 0.060843 -22.022311 18.792371 46.182019 55.063356 -59.668083 0.000000 0.000000 0.000000 0.000000 0.000000 0.000000 4.291836 -2.280328 24.426517 -1.567861 3.242240 -0.080640 9.784365 29.613302 12.443800 0.000000 0.000000 0.000000 3.057155 -0.519983 24.800701 0.899748 -1.107088 0.276296 -2.993247 -1.832225 -2.024830 0.000000 0.000000 0.000000
25.489078 86.742680 324.364860 -1.492836 2.999276 -22.347340 0.606605 -2.630557 22.337517 1.932340 -0.335136 0.022274 5.809931 -2.287626 1.817420 0.000000 0.000000 0.000000 -2.456645 -3.908878 1.198470 -7.576037 0.936575 -0.649223 14.825808 12.261867 2.256823 -20.921053 -14.924454 -3.846662 0.000000 0.000000 0.000000 0.000000 0.000000 0.000000 -0.000000 0.000000 0.000000 -0.000000 0.000000 0.000000 4.384413 -33.104078 23.969708 81.746720 42.826796 -93.124351 0.000000 0.000000 0.000000 0.000000 0.000000 0.000000 4.558329 -3.197138 22.532506 -1.220465 3.474523 -0.009065 11.202289 25.765527 10.612155 0.000000 0.000000 0.000000 4.090664 -1.528735 23.023762 0.838565 -0.726968 0.309334 -2.349951 -0.071727 -2.385623 0.000000 0.000000 0.000000
25.343638 87.310980 323.858481 -1.583962 3.606622 -19.407519 0.423561 -2.728706 19.399274 2.023067 -0.042983 0.026487 6.414162 -2.928644 1.854773 0.000000 0.000000 0.000000 -2.441944 -4.909383 1.201926 -7.426903 1.846344 -0.413597 16.058683 13.281878 2.676568 -22.404464 -15.771427 -4.994052 0.000000 0.000000 0.000000 0.000000 0.000000 0.000000 0.068126 -0.848709 0.004433 -0.000000 0.000000 0.000000 11.933461 -45.205954 31.720894 93.219360 26.414143 -107.500368 0.000000 0.000000 0.000000 0.000000 0.000000 0.000000 4.381261 -4.235316 19.593876 -0.626576 3.594385 0.093254 10.366714 28.268100 11.581332 0.000000 0.000000 0.000000 4.820538 -2.836885 20.198045 0.962422 -0.271334 0.411870 -1.478253 2.236113 -2.776663 0.000000 0.000000 0.000000
25.302695 88.011172 323.316154 -1.526543 4.150920 -15.917148 0.153644 -2.633970 15.910327 1.990018 -0.288762 0.031261 6.769709 -3.070609 1.772763 0.000000 0.000000 0.000000 -2.361080 -5.319589 1.175349 -6.456113 2.910147 -0.185624 16.500284 13.358666 3.034260 -24.643682 -16.406214 -5.929323 0.000000 0.000000 0.000000 0.000000 0.000000 0.000000 0.110832 -1.286575 0.007598 -0.000000 0.000000 0.000000 29.560088 -59.543649 46.752038 95.836785 22.322351 -119.908219 0.000000 0.000000 0.000000 0.000000 0.000000 0.000000 3.670513 -5.253186 16.052797 0.209345 3.493123 0.219200 8.753669 33.732520 13.879874 0.000000 0.000000 0.000000 5.167689 -4.295641 16.802044 1.025955 0.157844 0.498528 -0.187761 4.918837 -3.355740 0.000000 0.000000 0.000000
25.356874 87.573666 323.093356 -1.304468 4.029991 -16.137204 -0.038889 -2.218744 16.128118 1.785902 -0.353037 0.026591 6.923726 -2.978616 1.605912 0.000000 0.000000 0.000000 -2.165700 -5.394142 1.114090 -4.842687 4.158308 0.045029 16.619748 12.289083 3.290904 -25.042692 -15.740980 -6.329543 0.000000 0.000000 0.000000 0.000000 0.000000 0.000000 0.172273 -1.556058 0.012048 -0.000000 0.000000 0.000000 29.603739 -59.844679 45.642806 99.839476 30.666746 -123.986291 0.000000 0.000000 0.000000 0.000000 0.000000 0.000000 4.035029 -5.621024 16.300405 -0.155787 3.951525 0.260643 7.314206 42.219788 17.817151 0.000000 0.000000 0.000000 4.379016 -4.502214 16.767128 1.941024 0.006658 0.801778 -1.746996 3.406294 -2.919165 0.000000 0.000000 0.000000
25.466452 87.571010 322.930673 -1.089683 3.993771 -15.429675 -0.064513 -2.050551 15.422920 1.505319 -0.283912 0.019199 6.986354 -2.799065 1.413254 0.000000 0.000000 0.000000 -2.069000 -5.294395 1.043002 -3.350568 4.992567 0.174343 16.750252 11.871071 3.633446 -26.589957 -15.577681 -6.918974 0.000000 0.000000 0.000000 0.000000 0.000000 0.000000 0.191866 -1.750136 0.013748 -0.000000 0.000000 0.000000 23.687273 -56.701741 38.502173 97.495627 33.471165 -119.194978 0.000000 0.000000 0.000000 0.000000 0.000000 0.000000 3.566041 -5.823459 15.544166 0.162968 4.008878 0.309350 2.832223 45.858655 21.276097 0.000000 0.000000 0.000000 3.830956 -4.823079 15.912227 2.620899 0.059910 1.019895 -2.095280 3.553316 -2.975851 0.000000 0.000000 0.000000
25.418523 88.069576 322.842567 -1.121959 3.913088 -14.306196 -0.056208 -1.871079 14.305627 1.396473 -0.264120 0.014392 7.055509 -2.539088 1.216340 0.000000 0.000000 0.000000 -1.906213 -4.987226 0.951906 -1.782565 5.447507 0.211725 15.919949 11.350359 3.881153 -25.613311 -14.689209 -6.938007 0.000000 0.000000 0.000000 0.000000 0.000000 0.000000 0.242146 -1.849648 0.017425 -0.000000 0.000000 0.000000 12.664543 -46.125132 31.465084 88.827239 32.504669 -104.088126 0.000000 0.000000 0.000000 0.000000 0.000000 0.000000 2.992538 -6.221478 14.319622 0.828508 4.644395 0.359514 5.449346 40.320101 17.705309 0.000000 0.000000 0.000000 3.672942 -4.784186 14.762067 3.253078 0.043439 1.200988 -2.666020 3.551792 -3.101551 0.000000 0.000000 0.000000
25.513028 87.526929 322.867384 -0.894791 3.570381 -11.286673 -0.283819 -1.574325 11.279385 1.213889 -0.196422 0.008112 7.110503 -2.224590 1.016332 0.000000 0.000000 0.000000 -1.941976 -4.507383 0.864765 -0.034244 5.505882 0.146352 15.212916 11.552806 4.218133 -25.540288 -14.283099 -7.286234 0.000000 0.000000 0.000000 0.000000 0.000000 0.000000 0.267361 -1.885453 0.019264 -0.000000 0.000000 0.000000 15.843618 -49.418191 36.421791 89.352533 27.245259 -106.209864 0.000000 0.000000 0.000000 0.000000 0.000000 0.000000 2.236369 -5.722004 11.264939 0.832896 4.077823 0.342261 4.973768 41.943126 18.553343 0.000000 0.000000 0.000000 3.295682 -5.318369 11.679006 2.713859 0.880965 1.046822 -0.340186 3.900585 -6.316541 0.000000 0.000000 0.000000
25.720436 86.950797 322.810063 -0.285177 3.813821 -13.404569 -0.415539 -1.872191 13.377212 0.876364 -0.291599 -0.000548 6.604870 -2.212322 0.989783 0.000000 0.000000 0.000000 -2.035369 -3.863776 0.774291 1.464621 5.300731 0.085466 14.555337 12.242898 4.564956 -25.539737 -14.147385 -7.742804 0.000000 0.000000 0.000000 0.000000 0.000000 0.000000 0.247240 -1.797013 0.017645 -0.000000 0.000000 0.000000 13.718645 -47.340485 32.681797 88.368705 29.994264 -103.872265 0.000000 0.000000 0.000000 0.000000 0.000000 0.000000 2.671087 -6.340614 13.451995 -0.564365 3.931402 0.169632 6.486862 40.095738 17.271337 0.000000 0.000000 0.000000 2.682855 -5.388206 13.714270 1.959582 0.244182 0.864078 0.256857 3.665133 -6.088956 0.000000 0.000000 0.000000
